<?xml version="1.0" encoding="UTF-8"?>
<svg id="Layer_1" data-name="Layer 1" xmlns="http://www.w3.org/2000/svg" viewBox="0 0 743 142">
  <defs>
    <style>
      .cls-1 {
        fill: #ee5f29;
        fill-rule: evenodd;
      }

      .cls-2 {
        opacity: .96;
      }
    </style>
  </defs>
  <g class="cls-2">
    <path class="cls-1" d="M226.82,83.67v-19.31c0-1.18.96-2.15,2.15-2.15h18.24c1.18,0,2.15.96,2.15,2.15v19.31h4.65v-19.67c0-3.95-3.2-7.15-7.15-7.15h-17.52c-3.95,0-7.15,3.2-7.15,7.15v19.67h4.65Z"/>
    <path class="cls-1" d="M268.14,56.85c-3.93.02-7.11,3.21-7.11,7.15v12.52c0,3.95,3.2,7.15,7.15,7.15h9.65v-5.36h-10.01c-1.18,0-2.15-.96-2.15-2.15v-3.22h24.85s2.68,0,2.68,0v-8.94c0-3.94-3.18-7.13-7.11-7.15h-17.95ZM288.56,67.57h-22.89v-3.22c0-1.18.96-2.15,2.15-2.15h18.6c1.19,0,2.15.96,2.15,2.15v3.22h0Z"/>
    <polygon class="cls-1" points="301.59 56.8 297.77 56.8 297.77 62.16 301.59 62.16 301.59 83.67 306.24 83.67 306.24 62.16 317.08 62.16 317.08 56.8 306.24 56.8 306.24 49.7 301.59 49.7 301.59 56.8 301.59 56.8"/>
    <polygon class="cls-1" points="404.87 49.7 400.22 49.7 400.22 83.67 404.87 83.67 404.87 49.7 404.87 49.7"/>
    <path class="cls-1" d="M329.14,56.85c-3.94,0-7.13,3.18-7.15,7.12v14.34h0v5.36h0v7.87h4.65v-7.87h20.74c3.95,0,7.15-3.2,7.15-7.15v-12.52c0-3.95-3.2-7.15-7.15-7.15h-18.24ZM347.73,78.3h-18.95c-1.18,0-2.15-.96-2.15-2.15v-11.8c0-1.18.96-2.15,2.15-2.15h18.95c1.18,0,2.15.96,2.15,2.15v11.8c0,1.19-.96,2.15-2.15,2.15h0Z"/>
    <path class="cls-1" d="M386.29,56.85h-17.88c-3.95,0-7.15,3.2-7.15,7.15v12.52c0,3.95,3.2,7.15,7.15,7.15h17.88c3.95,0,7.15-3.2,7.15-7.15v-12.52c0-3.95-3.2-7.15-7.15-7.15h0ZM386.65,78.3h-18.6c-1.18,0-2.15-.96-2.15-2.15v-11.8c0-1.18.96-2.15,2.15-2.15h18.6c1.18,0,2.15.96,2.15,2.15v11.8c0,1.19-.96,2.15-2.15,2.15h0Z"/>
    <path class="cls-1" d="M419.5,56.85c-3.93.02-7.11,3.21-7.11,7.15v12.52c0,3.95,3.2,7.15,7.15,7.15h9.65v-5.36h-10.01c-1.18,0-2.15-.96-2.15-2.15v-3.22h24.85s2.68,0,2.68,0v-8.94c0-3.94-3.18-7.13-7.11-7.15h-17.95ZM439.92,67.57h-22.89v-3.22c0-1.18.96-2.15,2.15-2.15h18.6c1.19,0,2.15.96,2.15,2.15v3.22h0Z"/>
    <path class="cls-1" d="M475.49,56.85h-17.88c-3.95,0-7.15,3.2-7.15,7.15v12.52c0,3.95,3.2,7.15,7.15,7.15h17.88c3.95,0,7.15-3.2,7.15-7.15v-12.52c0-3.95-3.2-7.15-7.15-7.15h0ZM475.84,78.3h-18.59c-1.18,0-2.15-.96-2.15-2.15v-11.8c0-1.18.96-2.15,2.15-2.15h18.59c1.19,0,2.15.96,2.15,2.15v11.8c0,1.19-.96,2.15-2.15,2.15h0Z"/>
    <path class="cls-1" d="M492.86,83.67v-19.31c0-1.18.96-2.15,2.15-2.15h18.24c1.19,0,2.15.96,2.15,2.15v19.31h4.65v-19.67c0-3.95-3.2-7.15-7.15-7.15h-17.52c-3.95,0-7.15,3.2-7.15,7.15v19.67h4.65Z"/>
  </g>
</svg>